<svg version="1.1" id="Layer_1" xmlns="http://www.w3.org/2000/svg" xmlns:xlink="http://www.w3.org/1999/xlink" x="0px" y="0px"
	 width="100%" viewBox="0 0 280 280" enable-background="new 0 0 280 280" xml:space="preserve">
<path fill="#2F323A" opacity="1.000000" stroke="none" 
	d="
M1.000000,128.000000 
	C1.000000,127.250000 1.000000,126.500000 1.331985,125.359337 
	C2.587015,124.587479 3.510060,124.206284 4.433105,123.825089 
	C4.318592,123.479599 4.204078,123.134109 4.089564,122.788620 
	C3.059709,122.859077 2.029854,122.929535 1.000000,123.000000 
	C1.000000,82.366806 1.000000,41.733604 1.000000,1.050204 
	C94.223030,1.050204 187.446091,1.050204 281.000000,1.050204 
	C281.000000,44.020329 281.000000,87.041504 280.615112,130.545319 
	C278.613434,131.129318 276.022766,131.910675 275.540436,131.219894 
	C272.744019,127.215034 270.262665,128.987167 267.668427,131.478088 
	C265.979614,129.135559 264.489197,127.068237 263.080750,124.785088 
	C263.194641,124.073448 263.226624,123.577644 263.258575,123.081833 
	C262.999603,123.109344 262.740631,123.136856 262.481659,123.164360 
	C262.654694,123.776115 262.827698,124.387871 262.848541,125.302162 
	C260.497162,127.967201 258.297943,130.329712 256.453552,132.311050 
	C254.162109,130.538757 252.486023,129.242401 249.829117,127.187447 
	C250.010849,130.542267 250.102463,132.233612 250.200638,134.046097 
	C246.343979,133.109924 246.347656,132.877747 245.409393,128.237076 
	C245.129379,126.852203 243.858902,124.746407 242.808670,124.595413 
	C237.848206,123.882233 235.778214,125.796242 234.915237,130.815247 
	C234.700241,132.065613 233.975220,133.228271 233.484619,134.431244 
	C231.590546,132.891922 231.240341,131.265762 230.356140,130.018021 
	C229.646988,129.017319 227.881409,127.594772 227.285751,127.871040 
	C222.896500,129.906845 220.028397,127.278160 216.759430,124.734337 
	C211.809738,114.395309 203.990204,107.624901 193.970367,102.925774 
	C196.322662,100.308304 198.599930,98.051926 200.923615,95.852554 
	C200.970032,95.909561 200.855850,96.002182 201.041779,95.842789 
	C201.484421,95.479622 201.736465,95.270256 202.203094,94.798996 
	C209.013962,90.100960 213.656921,84.027176 217.269196,76.777206 
	C217.571671,76.304649 217.752701,76.041237 217.927109,75.920029 
	C217.906586,76.052689 217.641296,76.011543 217.855988,75.703156 
	C218.335983,74.705177 218.601303,74.015587 218.748779,72.944717 
	C225.113861,45.335266 206.101059,25.818546 187.467773,22.967312 
	C187.513107,22.943686 187.457001,22.990725 187.020645,22.906652 
	C171.407532,22.709831 156.230759,22.597082 140.591919,22.394066 
	C127.019707,22.282154 113.908714,22.179237 100.800186,22.314531 
	C98.467957,22.338604 96.145935,23.351944 93.415146,23.941656 
	C83.770821,24.865366 76.546181,29.801210 70.822868,36.486725 
	C67.592827,40.259808 66.030045,45.460186 63.433571,50.207668 
	C60.146000,56.087246 58.562222,61.871910 61.992798,68.303879 
	C62.022385,69.034828 62.032501,69.452812 62.047104,70.222420 
	C62.649925,71.711922 63.248260,72.849800 64.031303,74.304016 
	C66.999207,82.323631 71.885109,88.494469 78.245514,94.013123 
	C79.364563,94.853745 80.350334,95.369072 81.588829,95.922668 
	C82.247452,96.251572 82.653366,96.542206 83.132011,97.062180 
	C83.820633,97.482109 84.436516,97.672707 85.374191,97.899422 
	C86.466064,98.310600 87.236145,98.685654 88.008423,99.490356 
	C88.047462,101.065239 88.084297,102.210464 87.911774,103.550278 
	C87.151680,103.870041 86.600945,103.995216 85.796104,103.980179 
	C84.375893,104.602402 83.209785,105.364845 81.831612,106.383041 
	C77.183090,110.795471 72.746628,114.952148 67.978333,119.205788 
	C65.910255,121.799080 64.329338,124.429596 62.352348,126.717934 
	C61.673199,127.504044 60.004311,127.435089 58.787575,127.756760 
	C58.061752,122.204041 53.938259,124.508842 51.586586,125.344154 
	C49.946255,125.926796 49.064095,128.816116 47.990490,130.756531 
	C47.362633,131.891312 47.024048,133.186127 46.390659,134.838531 
	C44.593407,132.590363 37.471294,128.389481 35.526470,128.039154 
	C35.365986,128.010239 35.204937,127.847427 35.063526,127.869728 
	C31.378828,128.450653 27.529278,128.562607 24.055126,129.761154 
	C19.370543,131.377304 18.870476,131.347427 18.352171,126.276443 
	C18.294270,125.709961 17.790331,125.189064 17.360193,124.404282 
	C12.140201,127.351906 7.186545,130.782501 1.000000,128.000000 
M255.706009,121.997726 
	C256.176422,121.959793 256.646851,121.921860 257.117279,121.883926 
	C257.035400,121.614899 256.953552,121.345863 256.871704,121.076828 
	C256.443542,121.253433 256.015350,121.430031 255.706009,121.997726 
M248.951920,124.243271 
	C249.222610,124.617912 249.493301,124.992561 249.763992,125.367195 
	C249.965942,125.166885 250.167892,124.966576 250.369858,124.766273 
	C249.996536,124.493896 249.623230,124.221519 248.951920,124.243271 
M276.802521,126.879646 
	C276.948517,126.907982 277.094543,126.936325 277.240540,126.964661 
	C277.139893,126.896210 277.039215,126.827759 276.802521,126.879646 
z"/>
<path fill="#2B2C34" opacity="1.000000" stroke="none" 
	d="
M281.000000,229.000000 
	C281.000000,246.313675 281.000000,263.627350 281.000000,281.000000 
	C187.958664,281.000000 94.917305,281.000122 1.875954,280.995422 
	C1.583478,280.995422 1.291008,280.925751 0.999268,280.882843 
	C1.000000,263.230499 1.000000,245.583908 1.331240,227.565430 
	C7.681274,231.036591 13.211495,229.369492 18.842911,225.185867 
	C19.445316,228.703735 20.579504,230.360214 24.504728,229.272903 
	C28.192326,228.251434 32.313515,228.904007 36.206726,228.479141 
	C38.964272,228.178223 41.945965,227.834824 44.304379,226.549988 
	C46.766808,225.208466 52.108585,225.199844 54.287151,227.172714 
	C55.328007,228.115295 57.465710,229.079376 58.435249,228.619202 
	C60.662544,227.562057 60.856857,225.725693 59.401909,223.267593 
	C58.501652,221.746613 58.803658,219.268127 59.146809,217.321884 
	C59.538864,215.098236 60.410667,212.911285 61.373508,210.848160 
	C62.601788,208.216278 64.129967,205.724380 65.409439,203.557404 
	C61.640263,212.580032 61.716209,221.718552 63.863705,230.377045 
	C68.379150,248.582870 86.725082,260.767273 105.140968,258.851501 
	C124.805855,256.805756 140.083298,241.397949 140.841568,221.972458 
	C141.360977,208.666183 140.885254,195.321045 140.900391,181.756287 
	C140.946381,181.519302 140.844406,181.047348 140.885925,180.795441 
	C140.900146,180.375519 140.872833,180.207520 140.889572,179.958176 
	C140.933640,179.876846 141.118347,179.866760 141.431076,179.898178 
	C142.162735,179.953674 142.581680,179.977753 143.000870,180.470367 
	C143.001373,191.755341 142.851517,202.574997 143.083954,213.386429 
	C143.164368,217.126755 143.882385,220.931183 144.863602,224.556259 
	C146.362869,230.095291 151.222702,232.194916 156.428253,229.579956 
	C159.026062,228.274948 160.950043,228.169815 163.149002,230.227356 
	C165.949020,232.847214 167.223389,231.066849 167.734512,228.208084 
	C167.919769,227.171890 167.764297,226.074768 167.764297,224.651123 
	C174.850418,229.578583 198.133270,229.999817 205.847809,225.482910 
	C206.487427,228.537186 207.763580,231.196945 211.399689,229.066177 
	C215.329651,226.763214 219.058273,227.330109 223.270660,228.323853 
	C225.715347,228.900589 228.649429,227.104767 231.411087,226.716919 
	C234.376968,226.300430 239.278870,225.080948 240.061234,226.304977 
	C242.988632,230.884918 245.543213,230.584991 249.135345,227.668854 
	C249.684280,227.223190 250.765610,227.179550 251.541351,227.308136 
	C256.713623,228.165405 261.938354,228.844742 267.014221,230.110596 
	C273.796906,231.802170 273.739716,232.009079 272.680878,225.413559 
	C272.653351,225.242264 273.105896,224.993912 272.766907,225.308838 
	C275.720428,226.632996 278.360199,227.816498 281.000000,229.000000 
M174.465210,234.221024 
	C175.014465,234.246368 175.563736,234.271713 176.112976,234.297058 
	C176.070679,233.862915 176.028366,233.428772 175.986084,232.994629 
	C175.501389,233.254425 175.016693,233.514206 174.465210,234.221024 
M200.580841,232.606903 
	C201.024338,232.810593 201.467819,233.014297 201.911331,233.217987 
	C201.974396,232.947067 202.037445,232.676147 202.100494,232.405228 
	C201.624084,232.337219 201.147659,232.269211 200.580841,232.606903 
M14.368490,231.823318 
	C14.186622,232.253967 14.004753,232.684601 13.822880,233.115250 
	C14.093116,233.200211 14.363353,233.285187 14.633591,233.370148 
	C14.675882,232.899216 14.718175,232.428268 14.368490,231.823318 
M167.802322,233.879608 
	C167.948441,233.907944 168.094543,233.936279 168.240662,233.964615 
	C168.139923,233.896133 168.039200,233.827652 167.802322,233.879608 
M46.939743,233.773865 
	C47.000961,233.776901 47.062183,233.779953 46.939743,233.773865 
M233.939743,233.773849 
	C234.000946,233.776901 234.062164,233.779953 233.939743,233.773849 
z"/>
<path fill="#2C2E35" opacity="1.000000" stroke="none" 
	d="
M281.000000,228.531342 
	C278.360199,227.816498 275.720428,226.632996 272.766907,225.308838 
	C273.105896,224.993912 272.653351,225.242264 272.680878,225.413559 
	C273.739716,232.009079 273.796906,231.802170 267.014221,230.110596 
	C261.938354,228.844742 256.713623,228.165405 251.541351,227.308136 
	C250.765610,227.179550 249.684280,227.223190 249.135345,227.668854 
	C245.543213,230.584991 242.988632,230.884918 240.061234,226.304977 
	C239.278870,225.080948 234.376968,226.300430 231.411087,226.716919 
	C228.649429,227.104767 225.715347,228.900589 223.270660,228.323853 
	C219.058273,227.330109 215.329651,226.763214 211.399689,229.066177 
	C207.763580,231.196945 206.487427,228.537186 205.847809,225.482910 
	C198.133270,229.999817 174.850418,229.578583 167.764297,224.651123 
	C167.764297,226.074768 167.919769,227.171890 167.734512,228.208084 
	C167.223389,231.066849 165.949020,232.847214 163.149002,230.227356 
	C160.950043,228.169815 159.026062,228.274948 156.428253,229.579956 
	C151.222702,232.194916 146.362869,230.095291 144.863602,224.556259 
	C143.882385,220.931183 143.164368,217.126755 143.083954,213.386429 
	C142.851517,202.574997 143.001373,191.755341 143.000412,180.001770 
	C143.002289,174.259476 142.796310,169.440735 143.108673,164.655823 
	C143.236145,162.703018 144.486847,160.823547 145.478775,159.126160 
	C146.617233,160.744324 147.422821,162.206177 148.402100,163.540558 
	C158.170456,176.851044 171.897797,182.016281 187.543442,179.686569 
	C194.384369,178.667908 201.515045,174.287048 206.859100,169.561386 
	C220.557419,157.448151 222.846863,141.960388 216.979584,124.999718 
	C220.028397,127.278160 222.896500,129.906845 227.285751,127.871040 
	C227.881409,127.594772 229.646988,129.017319 230.356140,130.018021 
	C231.240341,131.265762 231.590546,132.891922 233.484619,134.431244 
	C233.975220,133.228271 234.700241,132.065613 234.915237,130.815247 
	C235.778214,125.796242 237.848206,123.882233 242.808670,124.595413 
	C243.858902,124.746407 245.129379,126.852203 245.409393,128.237076 
	C246.347656,132.877747 246.343979,133.109924 250.200638,134.046097 
	C250.102463,132.233612 250.010849,130.542267 249.829117,127.187447 
	C252.486023,129.242401 254.162109,130.538757 256.453552,132.311050 
	C258.297943,130.329712 260.497162,127.967201 262.848206,125.302353 
	C263.000000,125.000000 262.998779,125.000916 262.998779,125.000916 
	C264.489197,127.068237 265.979614,129.135559 267.668427,131.478088 
	C270.262665,128.987167 272.744019,127.215034 275.540436,131.219894 
	C276.022766,131.910675 278.613434,131.129318 280.615112,131.013977 
	C281.000000,163.354233 281.000000,195.708450 281.000000,228.531342 
z"/>
<path fill="#2C2E35" opacity="1.000000" stroke="none" 
	d="
M65.528877,203.172134 
	C64.129967,205.724380 62.601788,208.216278 61.373508,210.848160 
	C60.410667,212.911285 59.538864,215.098236 59.146809,217.321884 
	C58.803658,219.268127 58.501652,221.746613 59.401909,223.267593 
	C60.856857,225.725693 60.662544,227.562057 58.435249,228.619202 
	C57.465710,229.079376 55.328007,228.115295 54.287151,227.172714 
	C52.108585,225.199844 46.766808,225.208466 44.304379,226.549988 
	C41.945965,227.834824 38.964272,228.178223 36.206726,228.479141 
	C32.313515,228.904007 28.192326,228.251434 24.504728,229.272903 
	C20.579504,230.360214 19.445316,228.703735 18.842911,225.185867 
	C13.211495,229.369492 7.681274,231.036591 1.331240,227.096771 
	C1.000000,194.312439 1.000000,161.624878 1.000000,128.468658 
	C7.186545,130.782501 12.140201,127.351906 17.360193,124.404282 
	C17.790331,125.189064 18.294270,125.709961 18.352171,126.276443 
	C18.870476,131.347427 19.370543,131.377304 24.055126,129.761154 
	C27.529278,128.562607 31.378828,128.450653 35.063526,127.869728 
	C35.204937,127.847427 35.365986,128.010239 35.526470,128.039154 
	C37.471294,128.389481 44.593407,132.590363 46.390659,134.838531 
	C47.024048,133.186127 47.362633,131.891312 47.990490,130.756531 
	C49.064095,128.816116 49.946255,125.926796 51.586586,125.344154 
	C53.938259,124.508842 58.061752,122.204041 58.787575,127.756760 
	C60.004311,127.435089 61.673199,127.504044 62.352348,126.717934 
	C64.329338,124.429596 65.910255,121.799080 67.864548,119.551353 
	C63.297230,127.956970 61.034508,136.678299 62.560474,146.123276 
	C65.491478,164.264694 76.849625,175.358124 96.648911,180.192505 
	C82.117058,182.748840 72.029762,190.545334 65.528877,203.172134 
z"/>
<path fill="#2C2E35" opacity="1.000000" stroke="none" 
	d="
M1.000000,123.333328 
	C2.029854,122.929535 3.059709,122.859077 4.089564,122.788620 
	C4.204078,123.134109 4.318592,123.479599 4.433105,123.825089 
	C3.510060,124.206284 2.587015,124.587479 1.331985,124.984337 
	C1.000000,124.555557 1.000000,124.111107 1.000000,123.333328 
z"/>
<path fill="#FE7262" opacity="1.000000" stroke="none" 
	d="
M217.133804,76.976791 
	C213.656921,84.027176 209.013962,90.100960 201.948318,94.868057 
	C201.268188,95.463013 201.062027,95.732597 200.855865,96.002182 
	C200.855850,96.002182 200.970032,95.909561 200.572159,95.939972 
	C195.249252,97.676964 190.324219,99.383537 184.916138,101.121231 
	C181.299973,101.199883 178.166840,101.247406 174.753250,101.233017 
	C163.282150,101.234100 152.091522,101.297112 140.841461,101.256577 
	C140.782043,101.153038 140.988525,101.033165 140.982056,100.695717 
	C140.938095,99.910034 140.900574,99.461792 140.901337,98.545418 
	C140.891068,73.332909 140.842529,48.588539 140.858948,23.622234 
	C141.024017,23.103045 141.067368,22.797722 141.054001,22.484333 
	C156.230759,22.597082 171.407532,22.709831 187.009125,22.924984 
	C187.433975,23.027388 187.422424,22.990936 187.422424,22.990936 
	C206.101059,25.818546 225.113861,45.335266 218.425980,73.164108 
	C218.027786,74.513695 217.834549,75.262619 217.641296,76.011543 
	C217.641296,76.011543 217.906586,76.052689 217.673157,76.011093 
	C217.337753,76.305267 217.235779,76.641029 217.133804,76.976791 
z"/>
<path fill="#A259FE" opacity="1.000000" stroke="none" 
	d="
M97.066444,180.008972 
	C76.849625,175.358124 65.491478,164.264694 62.560474,146.123276 
	C61.034508,136.678299 63.297230,127.956970 68.196381,119.454391 
	C72.746628,114.952148 77.183090,110.795471 82.149567,106.319336 
	C83.803116,105.373383 84.926659,104.746887 86.050201,104.120392 
	C86.600945,103.995216 87.151680,103.870041 88.303452,103.483047 
	C91.457283,102.505035 94.010078,101.788834 96.908493,101.099472 
	C98.171013,101.057159 99.087914,100.988014 100.466949,101.000519 
	C114.282219,101.065826 127.635376,101.049500 140.988525,101.033173 
	C140.988525,101.033165 140.782043,101.153038 140.871811,101.529564 
	C141.027100,102.264221 141.092606,102.622360 141.101578,103.448708 
	C141.035217,110.306023 140.933456,116.696884 141.056107,123.083443 
	C141.113586,126.077377 141.603867,129.062988 141.752548,132.441238 
	C141.693237,138.220306 141.779373,143.610535 141.565399,149.203186 
	C141.237961,150.603149 141.210648,151.800674 141.119995,153.325546 
	C141.108490,154.091827 141.160339,154.530762 141.140900,155.435455 
	C141.085861,163.889740 141.102097,171.878250 141.118347,179.866760 
	C141.118347,179.866760 140.933640,179.876846 140.583893,179.965698 
	C139.834839,180.125229 139.435532,180.195908 138.569550,180.199799 
	C125.060822,180.167709 112.018776,180.202438 98.746994,180.140625 
	C98.033646,180.032379 97.550041,180.020676 97.066444,180.008972 
z"/>
<path fill="#F24E1E" opacity="1.000000" stroke="none" 
	d="
M100.004822,100.918869 
	C99.087914,100.988014 98.171013,101.057159 96.499939,101.015335 
	C93.165932,100.289818 90.586075,99.675262 88.006226,99.060715 
	C87.236145,98.685654 86.466064,98.310600 85.170998,97.696701 
	C84.117104,97.249519 83.588188,97.041183 83.059273,96.832848 
	C82.653366,96.542206 82.247452,96.251572 81.372200,95.675552 
	C79.972649,94.822731 79.042442,94.255280 78.112236,93.687836 
	C71.885109,88.494469 66.999207,82.323631 64.008293,73.966850 
	C63.214588,72.165825 62.628605,71.018311 62.042618,69.870789 
	C62.032501,69.452812 62.022385,69.034828 62.131237,67.985245 
	C62.738884,61.574963 63.227562,55.796299 63.716240,50.017632 
	C66.030045,45.460186 67.592827,40.259808 70.822868,36.486725 
	C76.546181,29.801210 83.770821,24.865366 93.895531,23.937008 
	C110.117981,23.880850 125.455986,23.862511 140.793991,23.844172 
	C140.842529,48.588539 140.891068,73.332909 140.444458,98.542160 
	C128.553345,99.005302 117.156059,98.914955 105.762756,99.087952 
	C103.834625,99.117226 101.923698,100.279869 100.004822,100.918869 
z"/>
<path fill="#1ABCFD" opacity="1.000000" stroke="none" 
	d="
M141.865509,149.000748 
	C141.779373,143.610535 141.693237,138.220306 141.865082,132.086243 
	C143.377945,127.895554 144.632812,124.448700 146.047485,120.702835 
	C151.420441,113.231682 157.667999,107.293289 166.354218,103.765167 
	C169.494095,102.903793 172.263901,102.099358 175.033707,101.294930 
	C178.166840,101.247406 181.299973,101.199883 185.264496,101.333389 
	C188.695709,102.105240 191.295532,102.696053 193.895340,103.286865 
	C203.990204,107.624901 211.809738,114.395309 216.759430,124.734337 
	C222.846863,141.960388 220.557419,157.448151 206.859100,169.561386 
	C201.515045,174.287048 194.384369,178.667908 187.543442,179.686569 
	C171.897797,182.016281 158.170456,176.851044 148.402100,163.540558 
	C147.422821,162.206177 146.617233,160.744324 145.411163,158.780609 
	C144.283646,156.298172 143.475967,154.376755 142.550781,152.120667 
	C142.244034,150.857574 142.054779,149.929169 141.865509,149.000748 
z"/>
<path fill="#D94B20" opacity="1.000000" stroke="none" 
	d="
M140.858948,23.622234 
	C125.455986,23.862511 110.117981,23.880850 94.299591,23.903835 
	C96.145935,23.351944 98.467957,22.338604 100.800186,22.314531 
	C113.908714,22.179237 127.019707,22.282154 140.591919,22.394066 
	C141.067368,22.797722 141.024017,23.103045 140.858948,23.622234 
z"/>
<path fill="#232F3B" opacity="1.000000" stroke="none" 
	d="
M63.433571,50.207664 
	C63.227562,55.796299 62.738884,61.574963 62.111763,67.672264 
	C58.562222,61.871910 60.146000,56.087246 63.433571,50.207664 
z"/>
<path fill="#2C2E35" opacity="1.000000" stroke="none" 
	d="
M193.970367,102.925774 
	C191.295532,102.696053 188.695709,102.105240 185.747543,101.302269 
	C190.324219,99.383537 195.249252,97.676964 200.525742,95.882965 
	C198.599930,98.051926 196.322662,100.308304 193.970367,102.925774 
z"/>
<path fill="#2C2E35" opacity="1.000000" stroke="none" 
	d="
M88.008423,99.490356 
	C90.586075,99.675262 93.165932,100.289818 96.154327,100.988495 
	C94.010078,101.788834 91.457283,102.505035 88.512810,103.288467 
	C88.084297,102.210464 88.047462,101.065239 88.008423,99.490356 
z"/>
<path fill="#2C2E35" opacity="1.000000" stroke="none" 
	d="
M255.646606,121.802185 
	C256.015350,121.430031 256.443542,121.253433 256.871704,121.076828 
	C256.953552,121.345863 257.035400,121.614899 257.117279,121.883926 
	C256.646851,121.921860 256.176422,121.959793 255.646606,121.802185 
z"/>
<path fill="#2C2E35" opacity="1.000000" stroke="none" 
	d="
M249.100922,124.096207 
	C249.623230,124.221519 249.996536,124.493896 250.369858,124.766266 
	C250.167892,124.966576 249.965942,125.166885 249.763977,125.367203 
	C249.493301,124.992561 249.222610,124.617912 249.100922,124.096207 
z"/>
<path fill="#2C2E35" opacity="1.000000" stroke="none" 
	d="
M85.796104,103.980179 
	C84.926659,104.746887 83.803116,105.373383 82.361618,106.063583 
	C83.209785,105.364845 84.375893,104.602402 85.796104,103.980179 
z"/>
<path fill="#232F3B" opacity="1.000000" stroke="none" 
	d="
M62.047104,70.222420 
	C62.628605,71.018311 63.214588,72.165825 63.823582,73.650513 
	C63.248260,72.849800 62.649925,71.711922 62.047104,70.222420 
z"/>
<path fill="#2C2E35" opacity="1.000000" stroke="none" 
	d="
M263.000366,124.999817 
	C262.827698,124.387871 262.654694,123.776115 262.481659,123.164360 
	C262.740631,123.136856 262.999603,123.109344 263.258575,123.081833 
	C263.226624,123.577644 263.194641,124.073448 263.080750,124.785088 
	C262.998779,125.000916 263.000000,125.000000 263.000366,124.999817 
z"/>
<path fill="#2C2E35" opacity="1.000000" stroke="none" 
	d="
M78.245514,94.013123 
	C79.042442,94.255280 79.972649,94.822731 81.119484,95.637291 
	C80.350334,95.369072 79.364563,94.853745 78.245514,94.013123 
z"/>
<path fill="#2C2E35" opacity="1.000000" stroke="none" 
	d="
M83.132011,97.062180 
	C83.588188,97.041183 84.117104,97.249519 84.849205,97.660583 
	C84.436516,97.672707 83.820633,97.482109 83.132011,97.062180 
z"/>
<path fill="#2C2E35" opacity="1.000000" stroke="none" 
	d="
M276.870544,126.819473 
	C277.039215,126.827759 277.139893,126.896210 277.240540,126.964661 
	C277.094543,126.936325 276.948517,126.907982 276.870544,126.819473 
z"/>
<path fill="#2C2E35" opacity="1.000000" stroke="none" 
	d="
M217.855988,75.703156 
	C217.834549,75.262619 218.027786,74.513695 218.543823,73.545387 
	C218.601303,74.015587 218.335983,74.705177 217.855988,75.703156 
z"/>
<path fill="#D94B20" opacity="1.000000" stroke="none" 
	d="
M187.467773,22.967312 
	C187.422424,22.990936 187.433975,23.027388 187.445496,23.009056 
	C187.457001,22.990725 187.513107,22.943686 187.467773,22.967312 
z"/>
<path fill="#2C2E35" opacity="1.000000" stroke="none" 
	d="
M217.269196,76.777206 
	C217.235779,76.641029 217.337753,76.305267 217.693665,75.878441 
	C217.752701,76.041237 217.571671,76.304649 217.269196,76.777206 
z"/>
<path fill="#2C2E35" opacity="1.000000" stroke="none" 
	d="
M201.041794,95.842796 
	C201.062027,95.732597 201.268188,95.463013 201.729126,95.124359 
	C201.736465,95.270256 201.484421,95.479622 201.041794,95.842796 
z"/>
<path fill="#0ACF83" opacity="1.000000" stroke="none" 
	d="
M96.648911,180.192520 
	C97.550041,180.020676 98.033646,180.032379 98.769669,180.416428 
	C100.671844,181.192444 102.318924,181.933029 103.971748,181.946045 
	C116.265320,182.042923 128.560043,181.995468 140.854401,181.993286 
	C140.885254,195.321045 141.360977,208.666183 140.841568,221.972458 
	C140.083298,241.397949 124.805855,256.805756 105.140968,258.851501 
	C86.725082,260.767273 68.379150,248.582870 63.863705,230.377045 
	C61.716209,221.718552 61.640263,212.580032 65.409439,203.557404 
	C72.029762,190.545334 82.117058,182.748840 96.648911,180.192520 
z"/>
<path fill="#00DA79" opacity="1.000000" stroke="none" 
	d="
M140.900391,181.756287 
	C128.560043,181.995468 116.265320,182.042923 103.971748,181.946045 
	C102.318924,181.933029 100.671844,181.192444 98.999420,180.512955 
	C112.018776,180.202438 125.060822,180.167709 138.775665,180.337677 
	C139.913788,180.710693 140.379089,180.879028 140.844406,181.047348 
	C140.844406,181.047348 140.946381,181.519302 140.900391,181.756287 
z"/>
<path fill="#2B262E" opacity="1.000000" stroke="none" 
	d="
M142.668289,152.455338 
	C143.475967,154.376755 144.283646,156.298172 145.158920,158.565155 
	C144.486847,160.823547 143.236145,162.703018 143.108673,164.655823 
	C142.796310,169.440735 143.002289,174.259476 143.000153,179.533218 
	C142.581680,179.977753 142.162735,179.953674 141.431076,179.898178 
	C141.102097,171.878250 141.085861,163.889740 141.278229,155.206436 
	C141.657776,154.007767 141.828705,153.503876 142.167145,152.864258 
	C142.334656,152.728531 142.668289,152.455338 142.668289,152.455338 
z"/>
<path fill="#2C2E35" opacity="1.000000" stroke="none" 
	d="
M174.498596,233.997498 
	C175.016693,233.514206 175.501389,233.254425 175.986084,232.994629 
	C176.028366,233.428772 176.070679,233.862915 176.112976,234.297058 
	C175.563736,234.271713 175.014465,234.246368 174.498596,233.997498 
z"/>
<path fill="#2C2E35" opacity="1.000000" stroke="none" 
	d="
M200.626038,232.404053 
	C201.147659,232.269211 201.624084,232.337219 202.100494,232.405228 
	C202.037445,232.676147 201.974396,232.947067 201.911316,233.217987 
	C201.467819,233.014297 201.024338,232.810593 200.626038,232.404053 
z"/>
<path fill="#2C2E35" opacity="1.000000" stroke="none" 
	d="
M14.564478,231.890320 
	C14.718175,232.428268 14.675882,232.899216 14.633591,233.370148 
	C14.363353,233.285187 14.093116,233.200211 13.822882,233.115250 
	C14.004753,232.684601 14.186622,232.253967 14.564478,231.890320 
z"/>
<path fill="#2C2E35" opacity="1.000000" stroke="none" 
	d="
M167.870392,233.819397 
	C168.039200,233.827652 168.139923,233.896133 168.240662,233.964615 
	C168.094543,233.936279 167.948441,233.907944 167.870392,233.819397 
z"/>
<path fill="#2C2E35" opacity="1.000000" stroke="none" 
	d="
M47.031570,233.778442 
	C47.062183,233.779953 47.000961,233.776901 47.031570,233.778442 
z"/>
<path fill="#2C2E35" opacity="1.000000" stroke="none" 
	d="
M234.031555,233.778412 
	C234.062164,233.779953 234.000946,233.776901 234.031555,233.778412 
z"/>
<path fill="#0ACF83" opacity="1.000000" stroke="none" 
	d="
M140.885925,180.795441 
	C140.379089,180.879028 139.913788,180.710693 139.242355,180.404480 
	C139.435532,180.195908 139.834839,180.125229 140.539825,180.047028 
	C140.872833,180.207520 140.900146,180.375519 140.885925,180.795441 
z"/>
<path fill="#F54D15" opacity="1.000000" stroke="none" 
	d="
M100.466949,101.000519 
	C101.923698,100.279869 103.834625,99.117226 105.762756,99.087952 
	C117.156059,98.914955 128.553345,99.005302 140.406174,99.010300 
	C140.900574,99.461792 140.938095,99.910034 140.982056,100.695724 
	C127.635376,101.049500 114.282219,101.065826 100.466949,101.000519 
z"/>
<path fill="#3B363D" opacity="1.000000" stroke="none" 
	d="
M174.753250,101.233017 
	C172.263901,102.099358 169.494095,102.903793 165.979797,103.595276 
	C157.833801,103.321320 150.432297,103.160316 142.718872,102.985130 
	C141.990692,102.974129 141.574402,102.977310 141.158127,102.980492 
	C141.092606,102.622360 141.027100,102.264221 140.931229,101.633102 
	C152.091522,101.297112 163.282150,101.234100 174.753250,101.233017 
z"/>
<path fill="#2D2E34" opacity="1.000000" stroke="none" 
	d="
M141.101578,103.448708 
	C141.574402,102.977310 141.990692,102.974129 142.711639,103.453598 
	C143.015045,108.927490 143.066071,113.919548 142.988876,118.909630 
	C142.953979,121.165779 143.641006,122.075264 145.887680,121.001854 
	C144.632812,124.448700 143.377945,127.895554 142.010544,131.697388 
	C141.603867,129.062988 141.113586,126.077377 141.056107,123.083443 
	C140.933456,116.696884 141.035217,110.306023 141.101578,103.448708 
z"/>
<path fill="#2B262E" opacity="1.000000" stroke="none" 
	d="
M141.565399,149.203186 
	C142.054779,149.929169 142.244034,150.857574 142.550781,152.120667 
	C142.668289,152.455338 142.334656,152.728531 141.963074,152.862610 
	C141.591492,152.996704 141.183350,152.998199 141.183350,152.998199 
	C141.210648,151.800674 141.237961,150.603149 141.565399,149.203186 
z"/>
<path fill="#2C2E35" opacity="1.000000" stroke="none" 
	d="
M141.119995,153.325546 
	C141.183350,152.998199 141.591492,152.996704 141.795563,152.998352 
	C141.828705,153.503876 141.657776,154.007767 141.349503,154.740662 
	C141.160339,154.530762 141.108490,154.091827 141.119995,153.325546 
z"/>
<path fill="#2D3039" opacity="1.000000" stroke="none" 
	d="
M146.047485,120.702835 
	C143.641006,122.075264 142.953979,121.165779 142.988876,118.909630 
	C143.066071,113.919548 143.015045,108.927490 143.023560,103.467773 
	C150.432297,103.160316 157.833801,103.321320 165.609741,103.652222 
	C157.667999,107.293289 151.420441,113.231682 146.047485,120.702835 
z"/>
</svg>