<svg width="20" height="18" viewBox="0 0 20 18" fill="none" xmlns="http://www.w3.org/2000/svg">
<path d="M4 2.00002C3.99974 2.53046 3.78877 3.03906 3.41351 3.41394C3.03825 3.78883 2.52943 3.99929 1.999 3.99902C1.46857 3.99876 0.959965 3.78779 0.585079 3.41253C0.210194 3.03727 -0.000264966 2.52846 2.50361e-07 1.99802C0.000265467 1.46759 0.211233 0.958988 0.586494 0.584103C0.961754 0.209218 1.47057 -0.00124153 2.001 -0.000976312C2.53143 -0.000711096 3.04004 0.210257 3.41492 0.585517C3.78981 0.960777 4.00027 1.46959 4 2.00002ZM4.06 5.48002H0.0600002V18H4.06V5.48002ZM10.38 5.48002H6.4V18H10.34V11.43C10.34 7.77002 15.11 7.43002 15.11 11.43V18H19.06V10.07C19.06 3.90002 12 4.13002 10.34 7.16002L10.38 5.48002Z" fill="white"/>
</svg>
