<svg width="24" height="25" viewBox="0 0 24 25" fill="none" xmlns="http://www.w3.org/2000/svg">
<path d="M17.657 15.328L16.243 13.914L17.657 12.5C18.0285 12.1286 18.3231 11.6876 18.5241 11.2023C18.7252 10.717 18.8286 10.1968 18.8286 9.6715C18.8286 9.1462 18.7252 8.62605 18.5241 8.14073C18.3231 7.65542 18.0285 7.21445 17.657 6.843C17.2856 6.47156 16.8446 6.17691 16.3593 5.97589C15.874 5.77487 15.3538 5.6714 14.8285 5.6714C14.3032 5.6714 13.7831 5.77487 13.2977 5.97589C12.8124 6.17691 12.3715 6.47156 12 6.843L10.586 8.257L9.17201 6.843L10.586 5.429C11.7143 4.31892 13.2356 3.69966 14.8184 3.7061C16.4012 3.71255 17.9174 4.34418 19.0366 5.46341C20.1558 6.58265 20.7875 8.0988 20.7939 9.68162C20.8004 11.2644 20.1811 12.7857 19.071 13.914L17.657 15.328ZM14.828 18.157L13.414 19.571C12.8585 20.1356 12.1968 20.5846 11.4669 20.8922C10.737 21.1998 9.95343 21.3598 9.16139 21.363C8.36936 21.3662 7.58452 21.2126 6.85215 20.911C6.11979 20.6094 5.45438 20.1658 4.89432 19.6057C4.33426 19.0456 3.89063 18.3802 3.58902 17.6479C3.28741 16.9155 3.13379 16.1307 3.13701 15.3386C3.14024 14.5466 3.30025 13.763 3.60781 13.0331C3.91538 12.3033 4.36441 11.6415 4.92901 11.086L6.34301 9.672L7.75701 11.086L6.34301 12.5C5.97157 12.8714 5.67692 13.3124 5.4759 13.7977C5.27488 14.283 5.17141 14.8032 5.17141 15.3285C5.17141 15.8538 5.27488 16.374 5.4759 16.8593C5.67692 17.3446 5.97157 17.7856 6.34301 18.157C6.71446 18.5284 7.15543 18.8231 7.64074 19.0241C8.12605 19.2251 8.64621 19.3286 9.17151 19.3286C9.69681 19.3286 10.217 19.2251 10.7023 19.0241C11.1876 18.8231 11.6286 18.5284 12 18.157L13.414 16.743L14.828 18.157ZM14.828 8.257L16.243 9.672L9.17201 16.742L7.75701 15.328L14.828 8.258V8.257Z" fill="white"/>
</svg>
