<svg width="20" height="18" viewBox="0 0 20 18" fill="none" xmlns="http://www.w3.org/2000/svg">
<path d="M17.1186 2.62714C15.2641 0.937082 12.7199 -0.0110583 10.0707 9.73399e-05H10.0538C4.59802 0.00011258 0.108398 4.01021 0.108398 8.8833C0.108398 8.90616 0.108944 8.92855 0.108944 8.95143C0.129494 10.5008 0.578544 12.0215 1.41613 13.3784L0 18L5.27776 16.7838C6.73574 17.4987 8.37487 17.8673 10.0381 17.8541C15.5141 17.8273 20.0032 13.7944 19.9999 8.90276C20.0129 6.55256 18.9754 4.29236 17.1186 2.62714ZM10.0707 16.346C8.59644 16.3528 7.14809 15.9995 5.88232 15.3243L5.55552 15.1784L2.41284 15.9081L3.22982 13.1352L3.01197 12.8433C2.20271 11.6762 1.77397 10.3306 1.77395 8.95773C1.77395 4.90923 5.50379 1.57777 10.0364 1.57777C14.5691 1.57777 18.2989 4.90923 18.2989 8.95773C18.2989 11.5069 16.8202 13.8819 14.3953 15.227C13.1129 15.9608 11.621 16.3493 10.098 16.346M14.8855 10.946L14.2864 10.7028C14.2864 10.7028 13.4149 10.3622 12.8703 10.119C12.8158 10.119 12.7614 10.0703 12.7069 10.0703C12.5726 10.0733 12.4414 10.1068 12.3256 10.1676C12.2096 10.2284 12.2712 10.2163 11.5086 10.9946C11.4569 11.0856 11.3507 11.1425 11.2363 11.1406H11.1818C11.1 11.1283 11.0241 11.0945 10.964 11.0433L10.6917 10.946C10.1073 10.725 9.57229 10.4119 9.11214 10.0217C9.00321 9.92438 8.83982 9.82707 8.73088 9.72978C8.32767 9.38478 7.97946 8.99192 7.69604 8.56223L7.64156 8.46493C7.59424 8.40547 7.5575 8.33983 7.53263 8.27034C7.51839 8.18606 7.53766 8.1 7.58709 8.0271C7.63666 7.95412 7.80496 7.78384 7.96835 7.63791C8.13176 7.49197 8.13176 7.39468 8.24069 7.29737C8.29667 7.22792 8.33536 7.14858 8.35415 7.06466C8.37294 6.98075 8.37139 6.89421 8.34961 6.81088C8.09579 6.18139 7.8049 5.56432 7.47817 4.96225C7.39059 4.8406 7.25415 4.75355 7.09691 4.71901H6.49778C6.38885 4.71901 6.27992 4.76765 6.17098 4.76765L6.11651 4.8163C6.00759 4.86494 5.89866 4.96225 5.78972 5.0109C5.68079 5.05954 5.62633 5.2055 5.5174 5.30279C5.13664 5.73256 4.92596 6.26287 4.91827 6.81088C4.9243 7.19637 5.0169 7.57686 5.19059 7.9298L5.24507 8.07574C5.73412 9.00967 6.41809 9.85173 7.26031 10.5568L7.47817 10.7514C7.63671 10.8687 7.78259 10.999 7.91389 11.1406C9.04242 12.0177 10.3828 12.6501 11.83 12.9892C11.9934 13.0379 12.2113 13.0379 12.3746 13.0865H12.9193C13.204 13.074 13.4824 13.0077 13.7363 12.8919C13.8697 12.8379 13.9972 12.7727 14.1176 12.6973L14.2265 12.6C14.3354 12.5027 14.4444 12.4541 14.5533 12.3568C14.6597 12.2721 14.7515 12.1737 14.8256 12.0649C14.9302 11.847 15.0037 11.6183 15.0435 11.3838V11.0433C14.9945 11.004 14.9395 10.9712 14.8801 10.946" fill="white"/>
</svg>
